<svg width="31" height="41" viewBox="0 0 31 41" fill="none" xmlns="http://www.w3.org/2000/svg">
<g style="mix-blend-mode:lighten">
<path d="M0 0H31V41H0V0Z" fill="black"/>
<path fill-rule="evenodd" clip-rule="evenodd" d="M14 5C7.37 5 2 10.37 2 17C2 22.31 5.435 26.795 10.205 28.385C10.805 28.49 11.03 28.13 11.03 27.815C11.03 27.53 11.015 26.585 11.015 25.58C8 26.135 7.22 24.845 6.98 24.17C6.845 23.825 6.26 22.76 5.75 22.475C5.33 22.25 4.73 21.695 5.735 21.68C6.68 21.665 7.355 22.55 7.58 22.91C8.66 24.725 10.385 24.215 11.075 23.9C11.18 23.12 11.495 22.595 11.84 22.295C9.17 21.995 6.38 20.96 6.38 16.37C6.38 15.065 6.845 13.985 7.61 13.145C7.49 12.845 7.07 11.615 7.73 9.965C7.73 9.965 8.735 9.65 11.03 11.195C11.99 10.925 13.01 10.79 14.03 10.79C15.05 10.79 16.07 10.925 17.03 11.195C19.325 9.635 20.33 9.965 20.33 9.965C20.99 11.615 20.57 12.845 20.45 13.145C21.215 13.985 21.68 15.05 21.68 16.37C21.68 20.975 18.875 21.995 16.205 22.295C16.64 22.67 17.015 23.39 17.015 24.515C17.015 26.12 17 27.41 17 27.815C17 28.13 17.225 28.505 17.825 28.385C20.2072 27.5807 22.2772 26.0497 23.7437 24.0074C25.2101 21.965 25.9993 19.5143 26 17C26 10.37 20.63 5 14 5Z" fill="white"/>
<path d="M13 21H29V41H13V21Z" fill="black"/>
<path fill-rule="evenodd" clip-rule="evenodd" d="M16.25 24.75C16.1336 24.75 16.0113 24.7989 15.9133 24.9035C15.8137 25.0097 15.75 25.1636 15.75 25.3333V34.6667C15.75 35.0809 15.4142 35.4167 15 35.4167C14.5858 35.4167 14.25 35.0809 14.25 34.6667V25.3333C14.25 24.7959 14.4497 24.2714 14.819 23.8776C15.1897 23.4821 15.7034 23.25 16.25 23.25H24.625C24.9396 23.25 25.2306 23.3837 25.4373 23.6042C25.6425 23.823 25.75 24.1101 25.75 24.4V33.1427C25.75 33.5569 25.4142 33.8927 25 33.8927C24.5858 33.8927 24.25 33.5569 24.25 33.1427V24.75H16.25Z" fill="white"/>
<path fill-rule="evenodd" clip-rule="evenodd" d="M21.875 32.5833C22.2892 32.5833 22.625 32.9191 22.625 33.3333V35.2466L23.0146 34.9806C23.2697 34.8065 23.6053 34.8065 23.8604 34.9806L24.25 35.2466V33.3333C24.25 32.9191 24.5858 32.5833 25 32.5833C25.4142 32.5833 25.75 32.9191 25.75 33.3333V36.6667C25.75 36.9448 25.5961 37.2 25.3503 37.3299C25.1044 37.4597 24.8068 37.4429 24.5771 37.2861L23.4375 36.5081L22.2979 37.2861C22.0682 37.4429 21.7706 37.4597 21.5247 37.3299C21.2789 37.2 21.125 36.9448 21.125 36.6667V33.3333C21.125 32.9191 21.4608 32.5833 21.875 32.5833Z" fill="white"/>
<path fill-rule="evenodd" clip-rule="evenodd" d="M15.5 33.3333C15.5 32.9191 15.8358 32.5833 16.25 32.5833H25C25.4142 32.5833 25.75 32.9191 25.75 33.3333C25.75 33.7476 25.4142 34.0833 25 34.0833H16.25C15.8358 34.0833 15.5 33.7476 15.5 33.3333Z" fill="white"/>
<path fill-rule="evenodd" clip-rule="evenodd" d="M14.819 33.2109C15.1897 32.8154 15.7034 32.5833 16.25 32.5833C16.6642 32.5833 17 32.9191 17 33.3333C17 33.7476 16.6642 34.0833 16.25 34.0833C16.1336 34.0833 16.0113 34.1322 15.9133 34.2368C15.8137 34.3431 15.75 34.4969 15.75 34.6667C15.75 34.8364 15.8137 34.9903 15.9133 35.0965C16.0113 35.2011 16.1336 35.25 16.25 35.25H19.6875C20.1017 35.25 20.4375 35.5858 20.4375 36C20.4375 36.4142 20.1017 36.75 19.6875 36.75H16.25C15.7034 36.75 15.1897 36.5179 14.819 36.1224C14.4497 35.7286 14.25 35.2042 14.25 34.6667C14.25 34.1292 14.4497 33.6048 14.819 33.2109Z" fill="white"/>
</g>
</svg>
