<svg width="31" height="41" viewBox="0 0 31 41" fill="none" xmlns="http://www.w3.org/2000/svg">
<rect width="29" height="41" fill="black"/>
<path fill-rule="evenodd" clip-rule="evenodd" d="M14 5C7.37 5 2 10.37 2 17C2 22.31 5.435 26.795 10.205 28.385C10.805 28.49 11.03 28.13 11.03 27.815C11.03 27.53 11.015 26.585 11.015 25.58C8 26.135 7.22 24.845 6.98 24.17C6.845 23.825 6.26 22.76 5.75 22.475C5.33 22.25 4.73 21.695 5.735 21.68C6.68 21.665 7.355 22.55 7.58 22.91C8.66 24.725 10.385 24.215 11.075 23.9C11.18 23.12 11.495 22.595 11.84 22.295C9.17 21.995 6.38 20.96 6.38 16.37C6.38 15.065 6.845 13.985 7.61 13.145C7.49 12.845 7.07 11.615 7.73 9.965C7.73 9.965 8.735 9.65 11.03 11.195C11.99 10.925 13.01 10.79 14.03 10.79C15.05 10.79 16.07 10.925 17.03 11.195C19.325 9.635 20.33 9.965 20.33 9.965C20.99 11.615 20.57 12.845 20.45 13.145C21.215 13.985 21.68 15.05 21.68 16.37C21.68 20.975 18.875 21.995 16.205 22.295C16.64 22.67 17.015 23.39 17.015 24.515C17.015 26.12 17 27.41 17 27.815C17 28.13 17.225 28.505 17.825 28.385C20.2072 27.5807 22.2772 26.0497 23.7437 24.0074C25.2101 21.965 25.9993 19.5143 26 17C26 10.37 20.63 5 14 5Z" fill="white"/>
<rect x="16" y="21" width="13" height="20" fill="black"/>
<path d="M16 33.6667V24.3333C16 23.9797 16.1317 23.6406 16.3661 23.3905C16.6005 23.1405 16.9185 23 17.25 23H25.625C25.7245 23 25.8198 23.0421 25.8902 23.1172C25.9605 23.1922 26 23.2939 26 23.4V32.1427" stroke="white" stroke-width="1.5" stroke-linecap="round"/>
<path d="M22.875 32.3333V35.6667L24.4375 34.6L26 35.6667V32.3333" stroke="white" stroke-width="1.5" stroke-linecap="round" stroke-linejoin="round"/>
<path d="M17.25 32.3333H26" stroke="white" stroke-width="1.5" stroke-linecap="round"/>
<path d="M17.25 32.3333C16.9185 32.3333 16.6005 32.4738 16.3661 32.7239C16.1317 32.9739 16 33.3131 16 33.6667C16 34.0203 16.1317 34.3594 16.3661 34.6095C16.6005 34.8595 16.9185 35 17.25 35H20.6875" stroke="white" stroke-width="1.5" stroke-linecap="round" stroke-linejoin="round"/>
</svg>
